# xmcd
# Copyright (C) 1995-1998 Ti Kan
#
# Track frame offsets:
#       150
#       20407
#       44212
#       66087
#       83410
#       101367
#       120532
#       141687
#       158380
#       172615
#       189980
#       236972
#
# Disc length: 3455 seconds
#
# Revision: 0
# Processed by: cddbd v1.5.2PL0 Copyright (c) Steve Scherf et al.
# Submitted via: CD-Import v1.0
#
DISCID=950d7d0c
DTITLE=Ani Di Franco - Evolve
DYEAR=2003
DGENRE=
TTITLE0=Promised Land
TTITLE1=In The Way
TTITLE2=Icarus
TTITLE3=Slide
TTITLE4=O My My
TTITLE5=Evolve
TTITLE6=Shrug
TTITLE7=Phase
TTITLE8=Here For Now
TTITLE9=Second Intermission
TTITLE10=Serpentine
TTITLE11=Welcome To
EXTD=
EXTT0=
EXTT1=
EXTT2=
EXTT3=
EXTT4=
EXTT5=
EXTT6=
EXTT7=
EXTT8=
EXTT9=
EXTT10=
EXTT11=
PLAYORDER=
